<?xml version="1.0" encoding="utf-8"?>
<!-- Generator: Adobe Illustrator 19.0.0, SVG Export Plug-In . SVG Version: 6.00 Build 0)  -->
<svg version="1.1" id="Layer_1" xmlns="http://www.w3.org/2000/svg" xmlns:xlink="http://www.w3.org/1999/xlink" x="0px" y="0px"
	 viewBox="44 -41.5 100 100" style="enable-background:new 44 -41.5 100 100;" xml:space="preserve">
<style type="text/css">
	.st0{fill:none;stroke:#000000;stroke-width:7;stroke-linecap:round;stroke-linejoin:round;stroke-miterlimit:10;}
</style>
<path d="M124.2-25.7h-4.5v-3.5c0-0.8-0.7-1.6-1.6-1.6h-15.7v-4.2c0-0.8-0.7-1.6-1.6-1.6H87.1c-0.8,0-1.6,0.7-1.6,1.6v4.2H69.9
	c-0.8,0-1.6,0.7-1.6,1.6v3.5h-4.5c-0.8,0-1.6,0.7-1.6,1.6v76.1c0,0.8,0.7,1.6,1.6,1.6h60.2c0.8,0,1.6-0.7,1.7-1.6v-76.1
	C125.7-25,125-25.7,124.2-25.7z M88.7-33.4h10.6v2.6H88.7V-33.4z M71.5-27.6h15.7h13.7h15.7v3.5v4.8H71.5v-4.8V-27.6z M122.5,50.4
	H65.4h-0.1v-72.9h2.9v4.9c0,0.8,0.7,1.6,1.6,1.6H118c0.3,0,0.6-0.1,0.9-0.3c0.5-0.2,0.8-0.7,0.8-1.4v-4.8h2.8L122.5,50.4L122.5,50.4
	z"/>
<polyline class="st0" points="79.7,17.7 89.8,28.3 108.3,6 "/>
</svg>
