<?xml version="1.0" encoding="utf-8"?>
<!-- Generator: Adobe Illustrator 19.0.0, SVG Export Plug-In . SVG Version: 6.00 Build 0)  -->
<svg version="1.1" id="Layer_1" xmlns="http://www.w3.org/2000/svg" xmlns:xlink="http://www.w3.org/1999/xlink" x="0px" y="0px"
	 viewBox="0 0 24 24" style="enable-background:new 0 0 24 24;" xml:space="preserve">
<path d="M12,0C5.4,0,0,5.4,0,12c0,6.6,5.4,12,12,12s12-5.4,12-12C24,5.4,18.6,0,12,0z M12.8,22.5V21h-1.5v1.5
	c-5.2-0.4-9.3-4.5-9.7-9.7H3v-1.5H1.5c0.4-5.2,4.5-9.3,9.7-9.7V3h1.5V1.5c5.2,0.4,9.3,4.5,9.7,9.7H21v1.5h1.5
	C22.1,17.9,17.9,22.1,12.8,22.5z M17.5,8.8c0.1,0.2,0,0.4-0.1,0.5l-4,2.3c0,0.1,0.1,0.3,0.1,0.4c0,0.8-0.7,1.5-1.5,1.5
	c-0.8,0-1.5-0.7-1.5-1.5L6.4,9.7C6.1,9.4,5.9,9,6.2,8.6c0.2-0.4,0.7-0.5,1-0.3l4.1,2.4c0.2-0.1,0.5-0.2,0.7-0.2
	c0.4,0,0.8,0.2,1.1,0.5L17,8.7C17.2,8.6,17.4,8.6,17.5,8.8z"/>
</svg>
