<?xml version="1.0" encoding="utf-8"?>
<!-- Generator: Adobe Illustrator 19.0.0, SVG Export Plug-In . SVG Version: 6.00 Build 0)  -->
<svg version="1.1" id="Capa_1" xmlns="http://www.w3.org/2000/svg" xmlns:xlink="http://www.w3.org/1999/xlink" x="0px" y="0px"
	 viewBox="596 -6 24 24" style="enable-background:new 596 -6 24 24;" xml:space="preserve">
<path d="M608-6c-6.6,0-12,5.4-12,12s5.4,12,12,12s12-5.4,12-12S614.6-6,608-6z M608,16.5c-5.8,0-10.5-4.7-10.5-10.5
	c0-5.8,4.7-10.5,10.5-10.5S618.5,0.2,618.5,6C618.5,11.8,613.8,16.5,608,16.5z M608.8-1.5h-1.5l0,8.2l5.2,4.4l0.9-1.3L608.8,6V-1.5
	L608.8-1.5z"/>
</svg>
