<?xml version="1.0" encoding="utf-8"?>
<!-- Generator: Adobe Illustrator 19.0.0, SVG Export Plug-In . SVG Version: 6.00 Build 0)  -->
<svg version="1.1" id="Layer_1" xmlns="http://www.w3.org/2000/svg" xmlns:xlink="http://www.w3.org/1999/xlink" x="0px" y="0px"
	 viewBox="500 0 12 16" style="enable-background:new 500 0 12 16;" xml:space="preserve">
<style type="text/css">
	.st0{fill:#FF6054;}
</style>
<path class="st0" d="M511.1,2.7h-1.9c0-0.5-0.4-0.8-0.9-0.8h-5c-0.5,0-0.8,0.4-0.9,0.8h-1.6c-0.5,0-0.9,0.4-0.9,0.9v0.2
	c0,0.5,0.4,0.9,0.9,0.9h0.5v8.9c0,0.4,0.3,0.6,0.6,0.6h8c0.4,0,0.6-0.3,0.6-0.6V4.6h0.4c0.5,0,0.9-0.4,0.9-0.9V3.5
	C512,3.1,511.6,2.7,511.1,2.7z M504.3,12.6c0,0.3-0.3,0.6-0.6,0.6c-0.3,0-0.6-0.3-0.6-0.6V5.2c0-0.3,0.3-0.6,0.6-0.6
	c0.3,0,0.6,0.3,0.6,0.6V12.6z M506.7,12.6c0,0.3-0.3,0.6-0.6,0.6s-0.6-0.3-0.6-0.6V5.2c0-0.3,0.3-0.6,0.6-0.6s0.6,0.3,0.6,0.6V12.6z
	 M509,12.6c0,0.3-0.3,0.6-0.6,0.6c-0.3,0-0.6-0.3-0.6-0.6V5.2c0-0.3,0.3-0.6,0.6-0.6c0.3,0,0.6,0.3,0.6,0.6V12.6z"/>
</svg>
