<?xml version="1.0" encoding="utf-8"?>
<!-- Generator: Adobe Illustrator 19.0.0, SVG Export Plug-In . SVG Version: 6.00 Build 0)  -->
<svg version="1.1" id="Layer_1" xmlns="http://www.w3.org/2000/svg" xmlns:xlink="http://www.w3.org/1999/xlink" x="0px" y="0px"
	 viewBox="0 0 24 24" style="enable-background:new 0 0 24 24;" xml:space="preserve">
<path d="M12,0C5.4,0,0,5.4,0,12s5.4,12,12,12s12-5.4,12-12S18.6,0,12,0z M12,22.5C6.2,22.5,1.5,17.8,1.5,12S6.2,1.5,12,1.5
	S22.5,6.2,22.5,12S17.8,22.5,12,22.5z M15.7,12.5c0.3,0.5,0.4,1,0.4,1.7c0,1-0.3,1.8-0.9,2.5c-0.6,0.7-1.4,1.1-2.6,1.2v1.7h-1.4
	v-1.7c-1.9-0.2-3-1.3-3.5-3.2L10,14c0.2,1.2,0.9,1.9,2,1.9c0.5,0,0.9-0.1,1.2-0.4s0.4-0.6,0.4-1c0-0.4-0.1-0.7-0.4-0.9
	c-0.3-0.2-0.8-0.5-1.7-0.8c-0.8-0.3-1.4-0.5-1.8-0.8c-0.4-0.3-0.8-0.6-1.1-1.1c-0.3-0.5-0.4-1-0.4-1.7C8.2,8.4,8.5,7.7,9,7
	c0.5-0.7,1.3-1.1,2.3-1.2V4.5h1.4v1.3c1.6,0.2,2.6,1.1,3.1,2.7l-2,0.8c-0.4-1.1-1-1.7-1.8-1.7c-0.4,0-0.7,0.1-1,0.4
	c-0.2,0.2-0.4,0.5-0.4,0.9c0,0.4,0.1,0.6,0.4,0.8c0.2,0.2,0.7,0.4,1.5,0.7c0.8,0.3,1.5,0.6,2,0.9C15.1,11.6,15.4,12,15.7,12.5z"/>
</svg>
